<svg xmlns="http://www.w3.org/2000/svg" version="1.1" xmlns:xlink="http://www.w3.org/1999/xlink" xmlns:svgjs="http://svgjs.dev/svgjs" width="1500" height="1500" viewBox="0 0 1500 1500"><rect width="1500" height="1500" fill="#ffffff"></rect><g transform="matrix(0.6666666666666666,0,0,0.6666666666666666,249.39393939393938,438.5856950067477)"><svg viewBox="0 0 396 247" data-background-color="#ffffff" preserveAspectRatio="xMidYMid meet" height="935" width="1500" xmlns="http://www.w3.org/2000/svg" xmlns:xlink="http://www.w3.org/1999/xlink"><g id="tight-bounds" transform="matrix(1,0,0,1,0.2400000000000091,-0.09999999999999432)"><svg viewBox="0 0 395.52 247.2" height="247.2" width="395.52"><g><svg></svg></g><g><svg viewBox="0 0 395.52 247.2" height="247.2" width="395.52"><g transform="matrix(1,0,0,1,75.54432,79.31571100320659)"><svg viewBox="0 0 244.43135999999998 88.5685779935868" height="88.5685779935868" width="244.43135999999998"><g><svg viewBox="0 0 244.43135999999998 88.5685779935868" height="88.5685779935868" width="244.43135999999998"><g><svg viewBox="0 0 244.43135999999998 88.5685779935868" height="88.5685779935868" width="244.43135999999998"><g><svg viewBox="0 0 244.43135999999998 88.5685779935868" height="88.5685779935868" width="244.43135999999998"><g id="textblocktransform"><svg viewBox="0 0 244.43135999999998 88.5685779935868" height="88.5685779935868" width="244.43135999999998" id="textblock"><g><svg viewBox="0 0 244.43135999999998 88.5685779935868" height="88.5685779935868" width="244.43135999999998"><g transform="matrix(1,0,0,1,0,0)"><svg width="244.43135999999998" viewBox="2.4 -30.15 109.14 39.55" height="88.5685779935868" data-palette-color="#000000"><path d="M14.2-26.05Q19.25-26.05 21.73-24.05 24.2-22.05 24.2-18.25L24.2-18.25 24.2-5Q24.2-4.1 24.6-3.68 25-3.25 25.6-3.25L25.6-3.25Q26.75-3.25 27.9-3.95L27.9-3.95 27.9-0.5Q26.2 0.5 24.05 0.5L24.05 0.5Q21.9 0.5 20.85-0.73 19.8-1.95 19.7-4.1L19.7-4.1Q16.6 0.5 10.75 0.5L10.75 0.5Q6.55 0.5 4.48-1.33 2.4-3.15 2.4-7.1L2.4-7.1Q2.4-10.2 4-11.98 5.6-13.75 9.3-14.55 13-15.35 19.5-15.35L19.5-15.35 19.5-17.7Q19.5-20.25 18-21.28 16.5-22.3 13.65-22.3L13.65-22.3Q10.95-22.3 9.45-21.25 7.95-20.2 7.95-18.3L7.95-18.3 7.95-17.7 3.35-17.7Q3.25-18.4 3.25-19.35L3.25-19.35Q3.25-21.1 4.65-22.65 6.05-24.2 8.45-25.13 10.85-26.05 13.75-26.05L13.75-26.05 14.2-26.05ZM19.5-11.7Q14.25-11.7 11.58-11.18 8.9-10.65 8-9.6 7.1-8.55 7.1-6.7L7.1-6.7Q7.1-3.25 12.35-3.25L12.35-3.25Q14.2-3.25 15.85-4.17 17.5-5.1 18.5-6.8 19.5-8.5 19.5-10.7L19.5-10.7 19.5-11.7ZM46-26.05Q50.2-26.05 52.6-23.8 55-21.55 55-17.2L55-17.2 55 0 50.3 0 50.3-16.35Q50.3-22.3 44.9-22.3L44.9-22.3Q43.1-22.3 41.55-21.35 40-20.4 39.05-18.78 38.1-17.15 38.1-15.2L38.1-15.2 38.1 0 33.4 0 33.4-25.55 36.8-25.55 37.45-21.8Q40.65-26.05 46-26.05L46-26.05ZM86.45-30.15Q86.45-27.6 85.09-25.88 83.75-24.15 81.34-23.65L81.34-23.65 81.25-23.5Q83.75-21.3 83.75-18L83.75-18Q83.75-14.4 81.05-12.2 78.34-10 73.7-10L73.7-10 70.3-10Q68.8-10 67.8-9.22 66.8-8.45 66.8-7.25L66.8-7.25Q66.8-6.05 67.75-5.35 68.7-4.65 70.3-4.65L70.3-4.65 79.95-4.65Q82.9-4.65 84.67-2.8 86.45-0.95 86.45 1.9L86.45 1.9Q86.45 5.3 83.87 7.35 81.3 9.4 76.95 9.4L76.95 9.4 66.9 9.4Q65.2 9.4 63.77 8.5 62.35 7.6 61.52 6.23 60.7 4.85 60.7 3.4L60.7 3.4Q60.7 1.3 61.72-0.25 62.75-1.8 64.45-2.55L64.45-2.55Q62.15-3.95 62.15-6.7L62.15-6.7Q62.15-8.5 63.2-9.8 64.25-11.1 66.15-11.75L66.15-11.75Q62.8-13.6 62.8-18L62.8-18Q62.8-21.7 65.52-23.88 68.25-26.05 73.09-26.05L73.09-26.05 73.3-26.05Q76.09-26.05 78.4-25.2L78.4-25.2Q81.95-26.95 82.45-30.15L82.45-30.15 86.45-30.15ZM73.25-22.3Q70.59-22.3 69.02-21.28 67.45-20.25 67.45-18L67.45-18Q67.45-15.75 69.02-14.75 70.59-13.75 73.25-13.75L73.25-13.75Q75.9-13.75 77.5-14.75 79.09-15.75 79.09-18L79.09-18Q79.09-20.25 77.5-21.28 75.9-22.3 73.25-22.3L73.25-22.3ZM78.55-0.15L68.25-0.15Q67.05-0.15 66.2 0.7 65.34 1.55 65.34 2.75L65.34 2.75Q65.34 3.95 66.2 4.8 67.05 5.65 68.25 5.65L68.25 5.65 77.9 5.65Q79.5 5.65 80.65 4.73 81.8 3.8 81.8 2.6L81.8 2.6Q81.8 1.35 80.95 0.6 80.09-0.15 78.55-0.15L78.55-0.15ZM101.19-26.05Q104.04-26.05 106.27-25.15 108.49-24.25 109.72-22.65 110.94-21.05 110.94-19.1L110.94-19.1 110.89-18.2 106.24-18.2 106.24-18.65Q106.24-22.3 100.59-22.3L100.59-22.3Q94.99-22.3 94.99-18.95L94.99-18.95Q94.99-17.4 96.59-16.68 98.19-15.95 101.49-15.3L101.49-15.3Q104.64-14.65 106.67-13.95 108.69-13.25 110.12-11.75 111.54-10.25 111.54-7.7L111.54-7.7Q111.54-3.6 108.74-1.55 105.94 0.5 100.69 0.5L100.69 0.5 99.94 0.5Q96.79 0.5 94.44-0.48 92.09-1.45 90.82-3.13 89.54-4.8 89.59-6.9L89.59-6.9 89.59-8 94.24-8 94.24-7.5Q94.24-3.25 101.39-3.25L101.39-3.25Q103.49-3.25 105.17-4.2 106.84-5.15 106.84-6.8L106.84-6.8Q106.84-8.2 105.92-9 104.99-9.8 103.64-10.2 102.29-10.6 99.89-11L99.89-11Q96.79-11.6 94.89-12.23 92.99-12.85 91.64-14.35 90.29-15.85 90.29-18.45L90.29-18.45Q90.29-22 93.09-24.03 95.89-26.05 100.74-26.05L100.74-26.05 101.19-26.05Z" opacity="1" transform="matrix(1,0,0,1,0,0)" fill="#000000" class="wordmark-text-0" data-fill-palette-color="primary" id="text-0"></path></svg></g></svg></g></svg></g></svg></g></svg></g></svg></g></svg></g><g><path d="M0 123.6c0-68.262 55.338-123.6 123.6-123.6 48.607 0 90.661 28.058 110.849 68.861h-4.475c-19.865-38.525-60.043-64.868-106.374-64.867-66.057 0-119.606 53.55-119.606 119.606 0 66.057 53.55 119.606 119.606 119.606 46.331 0 86.509-26.343 106.374-64.867h4.475c-20.188 40.803-62.242 68.861-110.849 68.861-68.262 0-123.6-55.338-123.6-123.6z" fill="#000000" stroke="transparent" data-fill-palette-color="tertiary"></path></g></svg></g><defs></defs></svg><rect width="395.52" height="247.2" fill="none" stroke="none" visibility="hidden"></rect></g></svg></g></svg>